<?xml version="1.0" encoding="utf-8"?>
<!-- Generator: Adobe Illustrator 18.1.1, SVG Export Plug-In . SVG Version: 6.00 Build 0)  -->
<svg version="1.1" id="Layer_1" xmlns="http://www.w3.org/2000/svg" xmlns:xlink="http://www.w3.org/1999/xlink" x="0px" y="0px"
	 viewBox="0 0 566.9 566.9" enable-background="new 0 0 566.9 566.9" xml:space="preserve">
<g id="Layer_1_1_">
	<circle fill="#21201E" cx="3177.6" cy="561.8" r="1734.8"/>
</g>
<g id="Layer_2">
	<g>
		<line fill="none" stroke="#FFFFFF" stroke-width="7" stroke-miterlimit="10" x1="3470.7" y1="1213.7" x2="4225.3" y2="-81.7"/>
		<g>
			<polyline fill="none" stroke="#FFFFFF" stroke-width="7" stroke-miterlimit="10" points="4202.1,-41.5 3470.7,1213.7 
				3470.7,-90.2 2787.6,561.8 2105,-90.2 2105,1213.7 			"/>
			<line fill="none" stroke="#FFFFFF" stroke-width="11" stroke-miterlimit="10" x1="4202.6" y1="-60.2" x2="3484.9" y2="1171.8"/>
		</g>
	</g>
	<line fill="none" stroke="#FFFFFF" stroke-width="11" stroke-miterlimit="10" x1="3484.9" y1="1171.8" x2="4238.9" y2="-123.1"/>
</g>
<g>
	<g id="Layer_1_2_">
		<g>
			<circle fill="#FFFFFF" cx="283.5" cy="283.5" r="249.4"/>
		</g>
	</g>
	<g id="Layer_2_1_">
		<g>
			<g>
				
					<rect x="377.2" y="175.8" transform="matrix(-0.8641 -0.5033 0.5033 -0.8641 565.5206 720.2208)" fill="#21201E" width="5.7" height="216"/>
			</g>
			<g>
				<g>
					<polygon fill="#21201E" points="322.6,387.8 322.6,196.2 227.3,287.4 132.1,196.2 132.1,377 126.4,377 126.4,182.6 
						227.3,279.5 328.3,182.6 328.3,366.2 428.6,195 433.1,197.9 					"/>
				</g>
				<g>
					
						<rect x="374.7" y="179.7" transform="matrix(-0.8641 -0.5034 0.5034 -0.8641 564.7399 717.1759)" fill="#21201E" width="9.1" height="205.2"/>
				</g>
			</g>
		</g>
		<g>
			
				<rect x="377.5" y="170.2" transform="matrix(-0.8641 -0.5034 0.5034 -0.8641 572.2311 710.3571)" fill="#21201E" width="9.1" height="215.4"/>
		</g>
	</g>
</g>
</svg>
